<?xml version="1.0" encoding="iso-8859-1"?>
<!-- Generator: Adobe Illustrator 16.0.0, SVG Export Plug-In . SVG Version: 6.00 Build 0)  -->
<!DOCTYPE svg PUBLIC "-//W3C//DTD SVG 1.1//EN" "http://www.w3.org/Graphics/SVG/1.1/DTD/svg11.dtd">
<svg version="1.1" id="Capa_1" xmlns="http://www.w3.org/2000/svg" xmlns:xlink="http://www.w3.org/1999/xlink" x="0px" y="0px"
	 width="470px" height="470px" viewBox="0 0 470 470" style="enable-background:new 0 0 470 470;" xml:space="preserve">
<g>
	<path d="M469.522,300.565l-49.5-189.396c-1.847-7.669-8.708-13.075-16.597-13.075c-0.402,0-2.9,0.004-7.01,0.089
		c-2.816-3.191-6.919-5.157-11.401-5.157c-1.579,0-39.106,0.067-77.322,5.959c-23.182,3.571-41.898,8.604-55.634,14.955
		c-7.079,3.272-12.66,6.842-17.059,10.535c-4.399-3.693-9.98-7.263-17.059-10.535c-13.734-6.352-32.452-11.384-55.633-14.955
		c-38.215-5.892-75.744-5.959-77.323-5.959c-4.482,0-8.585,1.966-11.401,5.157c-4.111-0.085-6.607-0.089-7.01-0.089
		c-7.889,0-14.75,5.406-16.596,13.075l-49.5,189.396c-2.188,9.092,3.343,18.249,12.407,20.544l217.926,55.165l0.015,0.004
		c0.008,0.002,0.017,0.004,0.025,0.006c0.404,0.102,2.593,0.689,4.149,0.689s3.746-0.59,4.15-0.691
		c0.007-0.002,0.017-0.002,0.023-0.004c0.005-0.002,0.01-0.002,0.015-0.004l217.927-55.165
		C466.179,318.814,471.71,309.657,469.522,300.565z M312.04,129.081c23.482-3.637,47.282-4.932,61.057-5.393l37.708,156.632
		l-160.601,40.653v-166.5C250.204,149.004,263.127,136.659,312.04,129.081z M219.795,154.473v166.501L59.194,280.319l37.708-156.634
		c13.703,0.455,37.334,1.739,60.773,5.351C206.812,136.61,219.795,148.985,219.795,154.473z"/>
</g>
<g>
</g>
<g>
</g>
<g>
</g>
<g>
</g>
<g>
</g>
<g>
</g>
<g>
</g>
<g>
</g>
<g>
</g>
<g>
</g>
<g>
</g>
<g>
</g>
<g>
</g>
<g>
</g>
<g>
</g>
</svg>
